<?xml version="1.0" encoding="iso-8859-1"?>
<!-- Uploaded to: SVG Repo, www.svgrepo.com, Generator: SVG Repo Mixer Tools -->
<svg fill="#000000" height="800px" width="800px" version="1.1" id="Layer_1" xmlns="http://www.w3.org/2000/svg" xmlns:xlink="http://www.w3.org/1999/xlink" 
	 viewBox="0 0 463 463" xml:space="preserve">
<g>
	<g>
		<g>
			<path d="M231.5,0C134.729,0,56,78.729,56,175.5c0,28.414,9.141,59.552,27.168,92.549c14.208,26.005,33.968,53.28,58.732,81.066
				c41.988,47.111,83.293,78.999,85.031,80.333c1.347,1.034,2.958,1.552,4.568,1.552c1.61,0,3.221-0.518,4.568-1.552
				c1.738-1.334,43.043-33.222,85.031-80.333c24.764-27.786,44.525-55.062,58.732-81.066C397.859,235.052,407,203.914,407,175.5
				C407,78.729,328.271,0,231.5,0z M310.065,338.95c-33.113,37.186-66.623,65.313-78.565,74.97
				c-11.942-9.657-45.452-37.784-78.565-74.97C85.215,262.904,71,208.091,71,175.5C71,87,143,15,231.5,15S392,87,392,175.5
				C392,208.091,377.785,262.904,310.065,338.95z"/>
			<path d="M263.5,448h-64c-4.142,0-7.5,3.357-7.5,7.5s3.358,7.5,7.5,7.5h64c4.142,0,7.5-3.357,7.5-7.5S267.642,448,263.5,448z"/>
			<path d="M223.5,80c-4.142,0-7.5,3.357-7.5,7.5V136h-9V87.5c0-4.143-3.358-7.5-7.5-7.5c-4.142,0-7.5,3.357-7.5,7.5V136h-9V87.5
				c0-4.143-3.358-7.5-7.5-7.5c-4.142,0-7.5,3.357-7.5,7.5v64c0,12.958,10.542,23.5,23.5,23.5h0.5v144.5c0,4.143,3.358,7.5,7.5,7.5
				c4.142,0,7.5-3.357,7.5-7.5V175h0.5c12.958,0,23.5-10.542,23.5-23.5v-64C231,83.357,227.642,80,223.5,80z M216,151.5
				c0,4.687-3.813,8.5-8.5,8.5h-16c-4.687,0-8.5-3.813-8.5-8.5V151h33V151.5z"/>
			<path d="M279.719,94.317C278.903,86.155,272.102,80,263.899,80C255.132,80,248,87.133,248,95.899V319.5
				c0,4.143,3.358,7.5,7.5,7.5c4.142,0,7.5-3.357,7.5-7.5V255h6.82c6.626,0,12.978-2.818,17.424-7.731
				c4.447-4.913,6.619-11.513,5.959-18.106L279.719,94.317z M276.123,237.203c-1.632,1.804-3.87,2.797-6.302,2.797H263V95.899
				c0-0.496,0.403-0.899,0.899-0.899c0.464,0,0.849,0.348,0.895,0.81l13.484,134.845C278.52,233.074,277.754,235.4,276.123,237.203z
				"/>
		</g>
	</g>
</g>
</svg>